<svg width="16" height="16" viewBox="0 0 16 16" fill="none" xmlns="http://www.w3.org/2000/svg">
<path d="M9.53063 2.9694L14.0306 7.4694C14.1005 7.53908 14.156 7.62187 14.1939 7.71304C14.2317 7.8042 14.2512 7.90194 14.2512 8.00065C14.2512 8.09936 14.2317 8.1971 14.1939 8.28827C14.156 8.37943 14.1005 8.46222 14.0306 8.5319L9.53063 13.0319C9.38973 13.1728 9.19863 13.252 8.99938 13.252C8.80012 13.252 8.60902 13.1728 8.46813 13.0319C8.32723 12.891 8.24807 12.6999 8.24807 12.5007C8.24807 12.3014 8.32723 12.1103 8.46813 11.9694L11.6875 8.75003H2.5C2.30109 8.75003 2.11032 8.67101 1.96967 8.53036C1.82902 8.38971 1.75 8.19894 1.75 8.00003C1.75 7.80112 1.82902 7.61035 1.96967 7.4697C2.11032 7.32905 2.30109 7.25003 2.5 7.25003H11.6875L8.4675 4.03065C8.3266 3.88976 8.24745 3.69866 8.24745 3.4994C8.24745 3.30015 8.3266 3.10905 8.4675 2.96815C8.6084 2.82726 8.79949 2.7481 8.99875 2.7481C9.19801 2.7481 9.3891 2.82726 9.53 2.96815L9.53063 2.9694Z" fill="white"/>
</svg>
