<svg width="909" height="646" viewBox="0 0 909 646" fill="none" xmlns="http://www.w3.org/2000/svg">
<rect width="909" height="646" fill="white"/>
<path d="M218.67 312.625H203.739C203.466 310.693 202.909 308.977 202.068 307.477C201.227 305.955 200.148 304.659 198.83 303.591C197.511 302.523 195.989 301.705 194.261 301.136C192.557 300.568 190.705 300.284 188.705 300.284C185.091 300.284 181.943 301.182 179.261 302.977C176.58 304.75 174.5 307.341 173.023 310.75C171.545 314.136 170.807 318.25 170.807 323.091C170.807 328.068 171.545 332.25 173.023 335.636C174.523 339.023 176.614 341.58 179.295 343.307C181.977 345.034 185.08 345.898 188.602 345.898C190.58 345.898 192.409 345.636 194.091 345.114C195.795 344.591 197.307 343.83 198.625 342.83C199.943 341.807 201.034 340.568 201.898 339.114C202.784 337.659 203.398 336 203.739 334.136L218.67 334.205C218.284 337.409 217.318 340.5 215.773 343.477C214.25 346.432 212.193 349.08 209.602 351.42C207.034 353.739 203.966 355.58 200.398 356.943C196.852 358.284 192.841 358.955 188.364 358.955C182.136 358.955 176.568 357.545 171.659 354.727C166.773 351.909 162.909 347.83 160.068 342.489C157.25 337.148 155.841 330.682 155.841 323.091C155.841 315.477 157.273 309 160.136 303.659C163 298.318 166.886 294.25 171.795 291.455C176.705 288.636 182.227 287.227 188.364 287.227C192.409 287.227 196.159 287.795 199.614 288.932C203.091 290.068 206.17 291.727 208.852 293.909C211.534 296.068 213.716 298.716 215.398 301.852C217.102 304.989 218.193 308.58 218.67 312.625ZM252.642 359.023C247.347 359.023 242.767 357.898 238.903 355.648C235.063 353.375 232.097 350.216 230.006 346.17C227.915 342.102 226.869 337.386 226.869 332.023C226.869 326.614 227.915 321.886 230.006 317.841C232.097 313.773 235.063 310.614 238.903 308.364C242.767 306.091 247.347 304.955 252.642 304.955C257.938 304.955 262.506 306.091 266.347 308.364C270.21 310.614 273.188 313.773 275.278 317.841C277.369 321.886 278.415 326.614 278.415 332.023C278.415 337.386 277.369 342.102 275.278 346.17C273.188 350.216 270.21 353.375 266.347 355.648C262.506 357.898 257.938 359.023 252.642 359.023ZM252.71 347.773C255.119 347.773 257.131 347.091 258.744 345.727C260.358 344.341 261.574 342.455 262.392 340.068C263.233 337.682 263.653 334.966 263.653 331.92C263.653 328.875 263.233 326.159 262.392 323.773C261.574 321.386 260.358 319.5 258.744 318.114C257.131 316.727 255.119 316.034 252.71 316.034C250.278 316.034 248.233 316.727 246.574 318.114C244.938 319.5 243.699 321.386 242.858 323.773C242.04 326.159 241.631 328.875 241.631 331.92C241.631 334.966 242.04 337.682 242.858 340.068C243.699 342.455 244.938 344.341 246.574 345.727C248.233 347.091 250.278 347.773 252.71 347.773ZM287.858 358V305.636H301.699V314.875H302.312C303.403 311.807 305.222 309.386 307.767 307.614C310.312 305.841 313.358 304.955 316.903 304.955C320.494 304.955 323.551 305.852 326.074 307.648C328.597 309.42 330.278 311.83 331.119 314.875H331.665C332.733 311.875 334.665 309.477 337.46 307.682C340.278 305.864 343.608 304.955 347.449 304.955C352.335 304.955 356.301 306.511 359.347 309.625C362.415 312.716 363.949 317.102 363.949 322.784V358H349.46V325.648C349.46 322.739 348.688 320.557 347.142 319.102C345.597 317.648 343.665 316.92 341.347 316.92C338.71 316.92 336.653 317.761 335.176 319.443C333.699 321.102 332.96 323.295 332.96 326.023V358H318.881V325.341C318.881 322.773 318.142 320.727 316.665 319.205C315.21 317.682 313.29 316.92 310.903 316.92C309.29 316.92 307.835 317.33 306.54 318.148C305.267 318.943 304.256 320.068 303.506 321.523C302.756 322.955 302.381 324.636 302.381 326.568V358H287.858ZM375.42 358V305.636H389.943V358H375.42ZM382.716 298.886C380.557 298.886 378.705 298.17 377.159 296.739C375.636 295.284 374.875 293.545 374.875 291.523C374.875 289.523 375.636 287.807 377.159 286.375C378.705 284.92 380.557 284.193 382.716 284.193C384.875 284.193 386.716 284.92 388.239 286.375C389.784 287.807 390.557 289.523 390.557 291.523C390.557 293.545 389.784 295.284 388.239 296.739C386.716 298.17 384.875 298.886 382.716 298.886ZM416.099 327.727V358H401.577V305.636H415.418V314.875H416.031C417.19 311.83 419.134 309.42 421.861 307.648C424.588 305.852 427.895 304.955 431.781 304.955C435.418 304.955 438.588 305.75 441.293 307.341C443.997 308.932 446.099 311.205 447.599 314.159C449.099 317.091 449.849 320.591 449.849 324.659V358H435.327V327.25C435.349 324.045 434.531 321.545 432.872 319.75C431.213 317.932 428.929 317.023 426.02 317.023C424.065 317.023 422.338 317.443 420.838 318.284C419.361 319.125 418.202 320.352 417.361 321.966C416.543 323.557 416.122 325.477 416.099 327.727ZM484.886 378.727C480.182 378.727 476.148 378.08 472.784 376.784C469.443 375.511 466.784 373.773 464.807 371.568C462.83 369.364 461.545 366.886 460.955 364.136L474.386 362.33C474.795 363.375 475.443 364.352 476.33 365.261C477.216 366.17 478.386 366.898 479.841 367.443C481.318 368.011 483.114 368.295 485.227 368.295C488.386 368.295 490.989 367.523 493.034 365.977C495.102 364.455 496.136 361.898 496.136 358.307V348.727H495.523C494.886 350.182 493.932 351.557 492.659 352.852C491.386 354.148 489.75 355.205 487.75 356.023C485.75 356.841 483.364 357.25 480.591 357.25C476.659 357.25 473.08 356.341 469.852 354.523C466.648 352.682 464.091 349.875 462.182 346.102C460.295 342.307 459.352 337.511 459.352 331.716C459.352 325.784 460.318 320.83 462.25 316.852C464.182 312.875 466.75 309.898 469.955 307.92C473.182 305.943 476.716 304.955 480.557 304.955C483.489 304.955 485.943 305.455 487.92 306.455C489.898 307.432 491.489 308.659 492.693 310.136C493.92 311.591 494.864 313.023 495.523 314.432H496.068V305.636H510.489V358.511C510.489 362.966 509.398 366.693 507.216 369.693C505.034 372.693 502.011 374.943 498.148 376.443C494.307 377.966 489.886 378.727 484.886 378.727ZM485.193 346.341C487.534 346.341 489.511 345.761 491.125 344.602C492.761 343.42 494.011 341.739 494.875 339.557C495.761 337.352 496.205 334.716 496.205 331.648C496.205 328.58 495.773 325.92 494.909 323.67C494.045 321.398 492.795 319.636 491.159 318.386C489.523 317.136 487.534 316.511 485.193 316.511C482.807 316.511 480.795 317.159 479.159 318.455C477.523 319.727 476.284 321.5 475.443 323.773C474.602 326.045 474.182 328.67 474.182 331.648C474.182 334.67 474.602 337.284 475.443 339.489C476.307 341.67 477.545 343.364 479.159 344.568C480.795 345.75 482.807 346.341 485.193 346.341ZM582.412 308.261C582.139 305.511 580.969 303.375 578.901 301.852C576.832 300.33 574.026 299.568 570.48 299.568C568.071 299.568 566.037 299.909 564.378 300.591C562.719 301.25 561.446 302.17 560.56 303.352C559.696 304.534 559.264 305.875 559.264 307.375C559.219 308.625 559.48 309.716 560.048 310.648C560.639 311.58 561.446 312.386 562.469 313.068C563.491 313.727 564.673 314.307 566.014 314.807C567.355 315.284 568.787 315.693 570.31 316.034L576.582 317.534C579.628 318.216 582.423 319.125 584.969 320.261C587.514 321.398 589.719 322.795 591.582 324.455C593.446 326.114 594.889 328.068 595.912 330.318C596.957 332.568 597.491 335.148 597.514 338.057C597.491 342.33 596.401 346.034 594.241 349.17C592.105 352.284 589.014 354.705 584.969 356.432C580.946 358.136 576.094 358.989 570.412 358.989C564.776 358.989 559.866 358.125 555.685 356.398C551.526 354.67 548.276 352.114 545.935 348.727C543.616 345.318 542.401 341.102 542.287 336.08H556.571C556.73 338.42 557.401 340.375 558.582 341.943C559.787 343.489 561.389 344.659 563.389 345.455C565.412 346.227 567.696 346.614 570.241 346.614C572.741 346.614 574.912 346.25 576.753 345.523C578.616 344.795 580.06 343.784 581.082 342.489C582.105 341.193 582.616 339.705 582.616 338.023C582.616 336.455 582.151 335.136 581.219 334.068C580.31 333 578.969 332.091 577.196 331.341C575.446 330.591 573.298 329.909 570.753 329.295L563.151 327.386C557.264 325.955 552.616 323.716 549.207 320.67C545.798 317.625 544.105 313.523 544.128 308.364C544.105 304.136 545.23 300.443 547.503 297.284C549.798 294.125 552.946 291.659 556.946 289.886C560.946 288.114 565.491 287.227 570.582 287.227C575.764 287.227 580.287 288.114 584.151 289.886C588.037 291.659 591.06 294.125 593.219 297.284C595.378 300.443 596.491 304.102 596.56 308.261H582.412ZM630.83 359.023C625.534 359.023 620.955 357.898 617.091 355.648C613.25 353.375 610.284 350.216 608.193 346.17C606.102 342.102 605.057 337.386 605.057 332.023C605.057 326.614 606.102 321.886 608.193 317.841C610.284 313.773 613.25 310.614 617.091 308.364C620.955 306.091 625.534 304.955 630.83 304.955C636.125 304.955 640.693 306.091 644.534 308.364C648.398 310.614 651.375 313.773 653.466 317.841C655.557 321.886 656.602 326.614 656.602 332.023C656.602 337.386 655.557 342.102 653.466 346.17C651.375 350.216 648.398 353.375 644.534 355.648C640.693 357.898 636.125 359.023 630.83 359.023ZM630.898 347.773C633.307 347.773 635.318 347.091 636.932 345.727C638.545 344.341 639.761 342.455 640.58 340.068C641.42 337.682 641.841 334.966 641.841 331.92C641.841 328.875 641.42 326.159 640.58 323.773C639.761 321.386 638.545 319.5 636.932 318.114C635.318 316.727 633.307 316.034 630.898 316.034C628.466 316.034 626.42 316.727 624.761 318.114C623.125 319.5 621.886 321.386 621.045 323.773C620.227 326.159 619.818 328.875 619.818 331.92C619.818 334.966 620.227 337.682 621.045 340.068C621.886 342.455 623.125 344.341 624.761 345.727C626.42 347.091 628.466 347.773 630.898 347.773ZM689.705 359.023C684.409 359.023 679.83 357.898 675.966 355.648C672.125 353.375 669.159 350.216 667.068 346.17C664.977 342.102 663.932 337.386 663.932 332.023C663.932 326.614 664.977 321.886 667.068 317.841C669.159 313.773 672.125 310.614 675.966 308.364C679.83 306.091 684.409 304.955 689.705 304.955C695 304.955 699.568 306.091 703.409 308.364C707.273 310.614 710.25 313.773 712.341 317.841C714.432 321.886 715.477 326.614 715.477 332.023C715.477 337.386 714.432 342.102 712.341 346.17C710.25 350.216 707.273 353.375 703.409 355.648C699.568 357.898 695 359.023 689.705 359.023ZM689.773 347.773C692.182 347.773 694.193 347.091 695.807 345.727C697.42 344.341 698.636 342.455 699.455 340.068C700.295 337.682 700.716 334.966 700.716 331.92C700.716 328.875 700.295 326.159 699.455 323.773C698.636 321.386 697.42 319.5 695.807 318.114C694.193 316.727 692.182 316.034 689.773 316.034C687.341 316.034 685.295 316.727 683.636 318.114C682 319.5 680.761 321.386 679.92 323.773C679.102 326.159 678.693 328.875 678.693 331.92C678.693 334.966 679.102 337.682 679.92 340.068C680.761 342.455 682 344.341 683.636 345.727C685.295 347.091 687.341 347.773 689.773 347.773ZM739.443 327.727V358H724.92V305.636H738.761V314.875H739.375C740.534 311.83 742.477 309.42 745.205 307.648C747.932 305.852 751.239 304.955 755.125 304.955C758.761 304.955 761.932 305.75 764.636 307.341C767.341 308.932 769.443 311.205 770.943 314.159C772.443 317.091 773.193 320.591 773.193 324.659V358H758.67V327.25C758.693 324.045 757.875 321.545 756.216 319.75C754.557 317.932 752.273 317.023 749.364 317.023C747.409 317.023 745.682 317.443 744.182 318.284C742.705 319.125 741.545 320.352 740.705 321.966C739.886 323.557 739.466 325.477 739.443 327.727Z" fill="#0D1FE1"/>
</svg>
