<svg width="20" height="20" viewBox="0 0 20 20" fill="none" xmlns="http://www.w3.org/2000/svg">
<path d="M17.5 12.0938L13.8211 10.4446L13.807 10.4383C13.5679 10.3352 13.3067 10.2937 13.0474 10.3176C12.7881 10.3415 12.5389 10.43 12.3227 10.575C12.2923 10.5953 12.2631 10.6172 12.2352 10.6406L10.4922 12.125C9.47657 11.5742 8.42735 10.5336 7.87579 9.53049L9.36485 7.76018C9.38875 7.73158 9.41093 7.70158 9.43126 7.67034C9.57249 7.45483 9.65824 7.20774 9.68087 6.95108C9.70349 6.69441 9.6623 6.43613 9.56094 6.19924C9.55853 6.19471 9.55644 6.19001 9.55469 6.18518L7.90626 2.50002C7.77094 2.19184 7.54001 1.9354 7.24763 1.76867C6.95525 1.60194 6.61696 1.53376 6.28282 1.57424C5.14873 1.72322 4.10765 2.27992 3.35402 3.14038C2.60039 4.00083 2.18573 5.1062 2.18751 6.25002C2.18751 12.6258 7.37422 17.8125 13.75 17.8125C14.8938 17.8143 15.9992 17.3996 16.8597 16.646C17.7201 15.8924 18.2768 14.8513 18.4258 13.7172C18.4663 13.3831 18.3981 13.0448 18.2314 12.7524C18.0646 12.46 17.8082 12.2291 17.5 12.0938ZM13.75 15.9375C11.1817 15.9344 8.71942 14.9128 6.90333 13.0967C5.08725 11.2806 4.06561 8.81836 4.06251 6.25002C4.06072 5.60275 4.28046 4.97436 4.68522 4.46926C5.08999 3.96415 5.6554 3.61276 6.28751 3.47346L7.75782 6.75471L6.26094 8.53752C6.23675 8.56636 6.21431 8.59662 6.19376 8.62815C6.04622 8.85358 5.95947 9.11333 5.94195 9.38218C5.92443 9.65103 5.97672 9.91985 6.09376 10.1625C6.82969 11.6688 8.3461 13.175 9.86797 13.9125C10.1123 14.0283 10.3824 14.0788 10.6521 14.0589C10.9217 14.0391 11.1816 13.9496 11.4063 13.7992C11.4364 13.7788 11.4654 13.7566 11.493 13.7328L13.2453 12.243L16.5266 13.7125C16.3873 14.3446 16.0359 14.91 15.5308 15.3148C15.0257 15.7196 14.3973 15.9393 13.75 15.9375Z" fill="#191919"/>
</svg>
